HIERARCHY
ROOT Pelvis
{
	OFFSET 0.000000 0.000000 0.000000
	CHANNELS 6 Xposition Yposition Zposition Xrotation Yrotation Zrotation
	JOINT LeftUpLeg_virtual
	{
		OFFSET 0.000000 0.000000 0.000000
		CHANNELS 3 Xrotation Yrotation Zrotation
		JOINT LeftUpLeg
		{
			OFFSET 18.735201 -5.666702 -4.541200
			CHANNELS 3 Xrotation Yrotation Zrotation
			JOINT LeftLeg
			{
				OFFSET -0.021200 -31.938179 0.493100
				CHANNELS 3 Xrotation Yrotation Zrotation
				JOINT LeftFoot
				{
					OFFSET 0.021200 -31.938179 -4.336299
					CHANNELS 3 Xrotation Yrotation Zrotation
					JOINT LeftToeBase
					{
						OFFSET 0.943001 -26.722000 15.023500
						CHANNELS 3 Xrotation Yrotation Zrotation
						End Site
						{
							OFFSET 0 0 0
						}
					}
				}
			}
		}
	}
	JOINT RightUpLeg_virtual
	{
		OFFSET 0.000000 0.000000 0.000000
		CHANNELS 3 Xrotation Yrotation Zrotation
		JOINT RightUpLeg
		{
			OFFSET -18.735201 -5.666702 -4.541200
			CHANNELS 3 Xrotation Yrotation Zrotation
			JOINT RightLeg
			{
				OFFSET 0.018946 -31.938133 0.493100
				CHANNELS 3 Xrotation Yrotation Zrotation
				JOINT RightFoot
				{
					OFFSET -0.018946 -31.938126 -4.336299
					CHANNELS 3 Xrotation Yrotation Zrotation
					JOINT RightToeBase
					{
						OFFSET -0.943001 -26.722004 15.023500
						CHANNELS 3 Xrotation Yrotation Zrotation
						End Site
						{
							OFFSET 0 0 0
						}
					}
				}
			}
		}
	}
	JOINT Hips_virtual
	{
		OFFSET 0.000000 0.000000 0.000000
		CHANNELS 3 Xrotation Yrotation Zrotation
		JOINT Hips
		{
			OFFSET -0.000000 -0.000000 -0.000000
			CHANNELS 3 Xrotation Yrotation Zrotation
			JOINT Spine
			{
				OFFSET 0.000000 10.199997 -0.299500
				CHANNELS 3 Xrotation Yrotation Zrotation
				JOINT Spine1
				{
					OFFSET 0.000000 11.900002 -1.516600
					CHANNELS 3 Xrotation Yrotation Zrotation
					JOINT Spine2
					{
						OFFSET 0.000000 13.600006 -2.842500
						CHANNELS 3 Xrotation Yrotation Zrotation
						JOINT Neck_virtual
						{
							OFFSET 0.000000 0.000000 0.000000
							CHANNELS 3 Xrotation Yrotation Zrotation
							JOINT Neck
							{
								OFFSET 0.000000 9.624100 -2.890100
								CHANNELS 3 Xrotation Yrotation Zrotation
								JOINT Head
								{
									OFFSET 0.000000 14.068802 -1.351900
									CHANNELS 3 Xrotation Yrotation Zrotation
									End Site
									{
										OFFSET 0 0 0
									}
								}
							}
						}
						JOINT LeftShoulder_virtual
						{
							OFFSET 0.000000 0.000000 0.000000
							CHANNELS 3 Xrotation Yrotation Zrotation
							JOINT LeftShoulder
							{
								OFFSET 15.263000 10.923401 -0.547700
								CHANNELS 3 Xrotation Yrotation Zrotation
								JOINT LeftArm
								{
									OFFSET 25.438599 -2.830597 -13.032500
									CHANNELS 3 Xrotation Yrotation Zrotation
									JOINT LeftForeArm
									{
										OFFSET 29.960503 0.000000 0.000000
										CHANNELS 3 Xrotation Yrotation Zrotation
										JOINT LeftHand
										{
											OFFSET 27.849251 0.000000 0.000000
											CHANNELS 3 Xrotation Yrotation Zrotation
											End Site
											{
												OFFSET 0 0 0
											}
										}
									}
								}
							}
						}
						JOINT RightShoulder_virtual
						{
							OFFSET 0.000000 0.000000 0.000000
							CHANNELS 3 Xrotation Yrotation Zrotation
							JOINT RightShoulder
							{
								OFFSET -15.263000 10.923401 -0.547700
								CHANNELS 3 Xrotation Yrotation Zrotation
								JOINT RightArm
								{
									OFFSET -25.438599 -2.830597 -13.032500
									CHANNELS 3 Xrotation Yrotation Zrotation
									JOINT RightForeArm
									{
										OFFSET -29.960503 0.000000 0.000000
										CHANNELS 3 Xrotation Yrotation Zrotation
										JOINT RightHand
										{
											OFFSET -27.849251 0.000000 0.000000
											CHANNELS 3 Xrotation Yrotation Zrotation
											End Site
											{
												OFFSET 0 0 0
											}
										}
									}
								}
							}
						}
					}
				}
			}
		}
	}
}
MOTION
Frames: 5
Frame Time: 0.03333333
7.990079 23.341114 382.525879 0.000000 0.000000 0.000000 59.934842 -49.813181 106.405529 -90.508032 -10.408685 28.389244 66.123239 -9.107834 2.604852 8.093934 -0.252238 -17.749978 0.000000 0.000000 0.000000 58.593003 -50.244538 103.688084 -120.995053 -2.133931 -8.045027 131.563035 17.366120 -2.562355 46.366999 15.306712 38.619307 0.000000 0.000000 0.000000 58.034301 -51.895446 105.043699 -0.768781 -0.790186 -0.702006 10.206783 -10.267498 -0.811784 22.213887 -11.845205 -1.384469 0.000000 0.000000 0.000000 20.915718 -12.198712 -2.039443 0.106600 2.526287 -0.741444 0.000000 0.000000 0.000000 23.764945 -12.142137 -0.793147 -1.493032 -2.393722 -22.363388 1.237802 5.109627 -51.101870 24.950881 -23.871347 -5.175768 0.000000 0.000000 0.000000 22.409960 -11.879552 -1.366950 1.985049 22.461688 5.230720 -34.600000 -7.755318 0.712178 -24.398747 31.367207 7.943699 0.000000 0.000000 0.000000 
8.670616 24.267956 395.983765 0.000000 0.000000 0.000000 58.606418 -49.603228 99.656258 -92.779439 -11.488931 31.863645 66.061364 -12.671331 2.533934 8.933227 -3.533052 -21.156340 0.000000 0.000000 0.000000 58.339849 -49.566727 98.501655 -119.520893 1.940389 -13.933760 133.651543 22.340205 -5.567986 40.468642 16.306576 45.744519 0.000000 0.000000 0.000000 55.062140 -51.394646 97.773639 -0.393331 -1.257134 -1.442315 9.640253 -9.247518 0.198212 22.136858 -9.547167 -1.310876 0.000000 0.000000 0.000000 20.728255 -9.810297 -1.950040 0.099357 2.336562 -0.693966 0.000000 0.000000 0.000000 23.021257 -9.812630 -1.031306 -1.293546 -2.042371 -23.280184 1.542548 4.688191 -51.180332 26.680590 -23.302891 -5.235217 0.000000 0.000000 0.000000 21.695896 -9.460554 -1.398039 1.392600 23.157592 7.054652 -37.138655 -8.151888 3.672455 -24.472759 29.505249 6.454538 0.000000 0.000000 0.000000 
9.037068 25.587837 408.321289 0.000000 0.000000 0.000000 51.844131 -48.948151 87.112834 -97.974283 -12.568684 36.641424 66.535823 -14.753796 0.633372 16.211063 -6.358742 -20.948422 0.000000 0.000000 0.000000 53.089414 -48.951402 87.982242 -114.728819 5.106322 -22.801087 134.000744 26.971133 -8.396509 40.281567 19.255606 51.625063 0.000000 0.000000 0.000000 49.332981 -50.497894 86.835542 -0.024623 -2.110940 -1.593525 8.673194 -7.817472 0.813506 21.489860 -7.063340 -1.400004 0.000000 0.000000 0.000000 20.505831 -7.252088 -1.901932 0.183319 2.000648 -0.573085 0.000000 0.000000 0.000000 21.705086 -7.367396 -1.443265 -1.044640 -2.163599 -23.994811 2.521938 3.499044 -48.301933 27.467623 -22.109175 -5.505805 0.000000 0.000000 0.000000 20.661221 -6.900147 -1.643474 0.756745 23.149439 9.101137 -37.426780 -12.991896 9.295208 -24.779819 32.027341 6.222859 0.000000 0.000000 0.000000 
9.216368 27.084564 419.616943 0.000000 0.000000 0.000000 42.262516 -46.916399 71.861363 -105.180180 -13.418854 41.200777 68.131164 -15.264807 -2.415601 27.631564 -7.812130 -17.700070 0.000000 0.000000 0.000000 44.548594 -47.920074 74.287931 -106.060209 6.074500 -33.253199 132.861987 30.946293 -11.132266 45.260433 23.169929 53.696570 0.000000 0.000000 0.000000 41.918766 -48.921298 73.794641 0.204342 -3.083401 -1.429149 7.403017 -6.083240 0.688865 20.301332 -4.814069 -1.674691 0.000000 0.000000 0.000000 19.986708 -4.945580 -2.010407 0.230828 1.597704 -0.373728 0.000000 0.000000 0.000000 20.069836 -5.182645 -1.947377 -0.664682 -2.390773 -23.903437 4.355469 3.803874 -42.278430 27.395698 -22.015947 -5.527241 0.000000 0.000000 0.000000 19.556034 -4.614285 -2.079063 0.289696 22.261383 10.811896 -33.057829 -21.456073 19.274626 -25.860322 40.012003 7.784984 0.000000 0.000000 0.000000 
9.075471 28.632065 429.256348 0.000000 0.000000 0.000000 34.239629 -44.094810 58.506745 -112.215145 -13.660059 43.759834 70.566803 -15.522204 -5.359001 38.664973 -8.259021 -13.846581 0.000000 0.000000 0.000000 34.831707 -46.142873 60.221095 -94.283228 3.527415 -43.036185 129.725537 34.184294 -13.053653 53.071253 26.414085 52.072276 0.000000 0.000000 0.000000 34.443688 -46.895440 60.896471 0.298570 -3.645391 -1.132481 6.270815 -4.347374 -0.238374 18.664482 -3.153054 -2.162639 0.000000 0.000000 0.000000 18.931882 -3.286348 -2.359470 0.125659 1.227156 -0.129821 0.000000 0.000000 0.000000 18.215493 -3.601108 -2.572985 -0.218937 -2.438169 -22.558839 6.460582 7.530378 -34.204454 26.341016 -24.029871 -4.995690 0.000000 0.000000 0.000000 18.465293 -2.938870 -2.657309 0.129444 20.524181 11.628907 -22.094183 -29.800399 35.395580 -28.368822 52.279654 11.619517 0.000000 0.000000 0.000000 
